<svg xmlns="http://www.w3.org/2000/svg" width="175.62" height="35" viewBox="0 0 175.62 35"><rect class="svg__rect" x="0" y="0" width="47.88" height="35" fill="#F33131"/><rect class="svg__rect" x="45.88" y="0" width="129.74" height="35" fill="#D53838"/><path class="svg__text" d="M15.69 22L14.22 22L14.22 13.47L16.14 13.47L18.60 20.01L21.06 13.47L22.97 13.47L22.97 22L21.49 22L21.49 19.19L21.64 15.43L19.12 22L18.06 22L15.55 15.43L15.69 19.19L15.69 22ZM29.75 18.86L26.89 13.47L28.53 13.47L30.49 17.51L32.46 13.47L34.10 13.47L31.24 18.86L31.24 22L29.75 22L29.75 18.86Z" fill="#FFFFFF"/><path class="svg__text" d="M62.45 22L60.07 22L60.07 13.60L62.45 13.60L62.45 22ZM69.95 22L67.62 22L67.62 13.60L69.58 13.60L73.29 18.07L73.29 13.60L75.61 13.60L75.61 22L73.66 22L69.95 17.52L69.95 22ZM80.19 21.24L80.19 21.24L80.97 19.49Q81.53 19.86 82.27 20.09Q83.02 20.32 83.74 20.32L83.74 20.32Q85.10 20.32 85.11 19.64L85.11 19.64Q85.11 19.28 84.72 19.11Q84.33 18.93 83.46 18.74L83.46 18.74Q82.52 18.53 81.88 18.30Q81.24 18.06 80.79 17.55Q80.34 17.03 80.34 16.16L80.34 16.16Q80.34 15.39 80.75 14.77Q81.17 14.15 82.01 13.79Q82.84 13.43 84.05 13.43L84.05 13.43Q84.88 13.43 85.68 13.62Q86.49 13.80 87.10 14.17L87.10 14.17L86.37 15.93Q85.17 15.28 84.04 15.28L84.04 15.28Q83.33 15.28 83.01 15.49Q82.69 15.70 82.69 16.04L82.69 16.04Q82.69 16.37 83.07 16.54Q83.45 16.71 84.30 16.89L84.30 16.89Q85.26 17.10 85.89 17.33Q86.52 17.56 86.99 18.07Q87.45 18.58 87.45 19.46L87.45 19.46Q87.45 20.21 87.03 20.83Q86.61 21.44 85.77 21.80Q84.93 22.17 83.73 22.17L83.73 22.17Q82.71 22.17 81.75 21.92Q80.79 21.67 80.19 21.24ZM93.82 15.48L91.23 15.48L91.23 13.60L98.76 13.60L98.76 15.48L96.19 15.48L96.19 22L93.82 22L93.82 15.48ZM104.55 22L102.12 22L105.83 13.60L108.17 13.60L111.89 22L109.42 22L108.76 20.37L105.21 20.37L104.55 22ZM106.98 15.93L105.90 18.61L108.06 18.61L106.98 15.93ZM115.61 17.80L115.61 17.80Q115.61 16.54 116.21 15.54Q116.81 14.55 117.88 13.99Q118.95 13.43 120.29 13.43L120.29 13.43Q121.47 13.43 122.41 13.83Q123.34 14.22 123.96 14.97L123.96 14.97L122.45 16.33Q121.61 15.40 120.43 15.40L120.43 15.40Q120.42 15.40 120.41 15.40L120.41 15.40Q119.34 15.40 118.67 16.06Q118.01 16.71 118.01 17.80L118.01 17.80Q118.01 18.50 118.31 19.04Q118.61 19.59 119.15 19.89Q119.69 20.20 120.39 20.20L120.39 20.20Q121.08 20.20 121.67 19.93L121.67 19.93L121.67 17.62L123.77 17.62L123.77 21.10Q123.05 21.61 122.12 21.89Q121.18 22.17 120.24 22.17L120.24 22.17Q118.93 22.17 117.87 21.61Q116.81 21.05 116.21 20.05Q115.61 19.06 115.61 17.80ZM131.14 22L128.76 22L128.76 13.60L132.61 13.60Q133.75 13.60 134.59 13.98Q135.43 14.35 135.88 15.06Q136.34 15.76 136.34 16.71L136.34 16.71Q136.34 17.62 135.91 18.30Q135.48 18.98 134.69 19.36L134.69 19.36L136.50 22L133.96 22L132.44 19.77L131.14 19.77L131.14 22ZM131.14 15.47L131.14 17.93L132.46 17.93Q133.19 17.93 133.56 17.61Q133.94 17.29 133.94 16.71L133.94 16.71Q133.94 16.12 133.56 15.79Q133.19 15.47 132.46 15.47L132.46 15.47L131.14 15.47ZM142.54 22L140.12 22L143.83 13.60L146.17 13.60L149.89 22L147.42 22L146.76 20.37L143.21 20.37L142.54 22ZM144.98 15.93L143.90 18.61L146.06 18.61L144.98 15.93ZM156.24 22L154.04 22L154.04 13.60L156.00 13.60L158.95 18.45L161.83 13.60L163.78 13.60L163.81 22L161.63 22L161.60 17.55L159.44 21.17L158.39 21.17L156.24 17.67L156.24 22Z" fill="#FFFFFF" x="58.88"/></svg>