<svg xmlns="http://www.w3.org/2000/svg" width="150.51" height="35" viewBox="0 0 150.51 35"><rect width="47.88" height="35" x="0" y="0" fill="#F33131" class="svg__rect"/><rect width="104.63" height="35" x="45.88" y="0" fill="#D53838" class="svg__rect"/><path fill="#FFF" d="M15.69 22L14.22 22L14.22 13.47L16.14 13.47L18.60 20.01L21.06 13.47L22.97 13.47L22.97 22L21.49 22L21.49 19.19L21.64 15.43L19.12 22L18.06 22L15.55 15.43L15.69 19.19L15.69 22ZM29.75 18.86L26.89 13.47L28.53 13.47L30.49 17.51L32.46 13.47L34.10 13.47L31.24 18.86L31.24 22L29.75 22L29.75 18.86Z" class="svg__text"/><path x="58.88" fill="#FFF" d="M61.86 15.48L59.28 15.48L59.28 13.60L66.80 13.60L66.80 15.48L64.23 15.48L64.23 22L61.86 22L61.86 15.48ZM73.25 22L70.53 13.60L72.98 13.60L74.66 18.96L76.44 13.60L78.62 13.60L80.32 19.01L82.08 13.60L84.35 13.60L81.62 22L79.08 22L77.48 16.89L75.79 22L73.25 22ZM91.24 22L88.86 22L88.86 13.60L91.24 13.60L91.24 22ZM98.21 15.48L95.62 15.48L95.62 13.60L103.15 13.60L103.15 15.48L100.58 15.48L100.58 22L98.21 22L98.21 15.48ZM109.31 15.48L106.73 15.48L106.73 13.60L114.25 13.60L114.25 15.48L111.68 15.48L111.68 22L109.31 22L109.31 15.48ZM125.36 22L118.62 22L118.62 13.60L125.21 13.60L125.21 15.44L120.98 15.44L120.98 16.85L124.71 16.85L124.71 18.63L120.98 18.63L120.98 20.17L125.36 20.17L125.36 22ZM132.55 22L130.17 22L130.17 13.60L134.01 13.60Q135.16 13.60 135.99 13.98Q136.83 14.35 137.29 15.06Q137.75 15.76 137.75 16.71L137.75 16.71Q137.75 17.62 137.32 18.30Q136.89 18.98 136.10 19.36L136.10 19.36L137.91 22L135.37 22L133.84 19.77L132.55 19.77L132.55 22ZM132.55 15.47L132.55 17.93L133.87 17.93Q134.60 17.93 134.97 17.61Q135.34 17.29 135.34 16.71L135.34 16.71Q135.34 16.12 134.97 15.79Q134.60 15.47 133.87 15.47L133.87 15.47L132.55 15.47Z" class="svg__text"/></svg>